<svg width="165" height="165" viewBox="0 0 165 165" fill="none" xmlns="http://www.w3.org/2000/svg">
<path d="M7.54266 95C9.89688 95 11.074 95 11.9942 95.3819C13.1917 95.8789 14.124 96.7894 14.6491 97.9748C15.0527 98.8857 15.0811 100.086 15.1378 102.487C15.5365 119.347 17.093 129.431 23.1719 136.838C24.6678 138.661 26.3393 140.332 28.1621 141.828C35.5693 147.907 45.6531 149.464 62.5125 149.862C64.9137 149.919 66.1143 149.947 67.0252 150.351C68.2107 150.876 69.1211 151.808 69.6181 153.006C70 153.926 70 155.103 70 157.457C70 159.827 70 161.012 69.6065 161.944C69.0998 163.145 68.1447 164.1 66.9443 164.606C66.012 165 64.8271 165 62.4573 165H18C9.51485 165 5.27176 164.999 2.63574 162.363C9.94205e-05 159.727 9.1034e-10 155.485 0 147V102.543C0 100.173 0 98.988 0.393528 98.0557C0.900172 96.8553 1.85534 95.9002 3.05567 95.3935C3.98801 95 5.17289 95 7.54266 95ZM165 147C165 155.485 165 159.727 162.364 162.363C159.728 164.999 155.485 165 147 165H102.543C100.173 165 98.988 165 98.0557 164.606C96.8553 164.1 95.9002 163.145 95.3935 161.944C95 161.012 95 159.827 95 157.457C95 155.103 95 153.926 95.3819 153.006C95.8789 151.808 96.7893 150.876 97.9748 150.351C98.8857 149.947 100.086 149.919 102.487 149.862C119.347 149.464 129.431 147.907 136.838 141.828C138.661 140.332 140.332 138.661 141.828 136.838C147.907 129.431 149.464 119.347 149.862 102.487C149.919 100.086 149.947 98.8857 150.351 97.9748C150.876 96.7894 151.808 95.8789 153.006 95.3819C153.926 95 155.103 95 157.457 95C159.827 95 161.012 95 161.944 95.3935C163.145 95.9002 164.1 96.8553 164.606 98.0557C165 98.988 165 100.173 165 102.543V147ZM70 7.54168C70 9.89499 70 11.0717 69.6184 11.9916C69.1214 13.1897 68.2105 14.1223 67.0246 14.6475C66.1139 15.0507 64.9138 15.0791 62.5135 15.1359C45.6535 15.5347 35.5695 17.0919 28.1621 23.1709C26.3393 24.6668 24.6678 26.3384 23.1719 28.1611C17.0928 35.5685 15.5364 45.6526 15.1378 62.5125C15.0811 64.9137 15.0527 66.1142 14.6491 67.0252C14.124 68.2106 13.1917 69.1211 11.9942 69.6181C11.074 70 9.89687 70 7.54265 70C5.17289 70 3.98801 70 3.05568 69.6065C1.85534 69.0998 0.900171 68.1447 0.393526 66.9443C0 66.012 0 64.8271 0 62.4573V18C0 9.51507 3.50475e-05 5.27181 2.63574 2.63574C5.27176 -0.000277042 9.51485 1.63109e-10 18 0H62.4583C64.8272 0 66.0116 0 66.9436 0.393228C68.1445 0.899894 69.1001 1.85548 69.6068 3.05638C70 3.98841 70 5.17283 70 7.54168ZM147 0C155.485 0 159.728 -0.000296831 162.364 2.63574C165 5.27179 165 9.51487 165 18V62.4573C165 64.8271 165 66.012 164.606 66.9443C164.1 68.1447 163.145 69.0998 161.944 69.6065C161.012 70 159.827 70 157.457 70C155.103 70 153.926 70 153.006 69.6181C151.808 69.1211 150.876 68.2106 150.351 67.0252C149.947 66.1142 149.919 64.9137 149.862 62.5125C149.464 45.6526 147.907 35.5685 141.828 28.1611C140.332 26.3384 138.661 24.6668 136.838 23.1709C129.431 17.0921 119.347 15.5347 102.487 15.1359C100.086 15.0791 98.8861 15.0507 97.9754 14.6475C96.7894 14.1223 95.8786 13.1897 95.3816 11.9916C95 11.0716 95 9.89499 95 7.54168C95 5.17283 95 3.98841 95.3932 3.05638C95.8999 1.85548 96.8555 0.899894 98.0564 0.393227C98.9884 0 100.173 0 102.542 0H147Z" fill="black"/>
</svg>
